<?xml version="1.0" encoding="utf-8"?>
<!-- Generator: Adobe Illustrator 28.0.0, SVG Export Plug-In . SVG Version: 6.00 Build 0)  -->
<svg version="1.1" id="レイヤー_1" xmlns="http://www.w3.org/2000/svg" xmlns:xlink="http://www.w3.org/1999/xlink" x="0px"
	 y="0px" viewBox="0 0 167 33" style="enable-background:new 0 0 167 33;" xml:space="preserve">
<style type="text/css">
	.st0{fill:#1B89DD;}
</style>
<g>
	<path class="st0" d="M6.1,23.7c-0.8-0.4-1.4-1.1-1.8-1.9c-0.4-0.8-0.7-1.6-0.7-2.3c0.1-0.6,0.2-1.1,0.5-1.5
		c0.2-0.4,0.5-0.6,0.9-0.9c0.3-0.2,0.7-0.4,1.1-0.5c0.4-0.1,0.7-0.2,1.1-0.3l0.6,0.2c0.1,0.1,0.3,0.2,0.4,0.4
		c0.1,0.1,0.3,0.2,0.4,0.3c0.3-0.1,0.4-0.3,0.5-0.5c0.1-0.2,0.1-0.4,0.2-0.6c0.1-0.3,0.2-0.6,0.3-0.9c0.1-0.3,0.2-0.6,0.4-0.9
		c0-0.2,0-0.4,0-0.6c0.1-0.2,0.1-0.3,0.2-0.5C9.9,13.1,9.8,13,9.8,13s-0.2,0-0.3-0.1c-0.1,0-0.2,0-0.2,0c-0.1,0-0.2,0-0.3-0.1
		c-0.4-0.3-0.6-0.5-0.8-0.7c-0.1-0.2-0.2-0.4-0.4-0.6c-0.1-0.2-0.2-0.4-0.4-0.6c-0.1-0.2-0.2-0.3-0.4-0.4l-0.5-0.3l0.2-0.5
		c0.1-0.1,0.1-0.1,0.1-0.2S6.8,9.3,6.7,9.1c-0.1-0.3-0.1-0.6,0-0.7l0.1-0.5C7,7.5,7.2,7.3,7.2,7.3l0.4-0.4c0.6-0.2,1.2-0.3,1.8-0.5
		s1.2-0.4,1.8-0.6c0.6-0.2,1.2-0.4,1.8-0.6s1.3-0.4,1.9-0.6c0.2-0.2,0.4-0.3,0.7-0.3c0.2,0,0.5-0.1,0.7-0.1c0.2,0,0.4,0,0.5,0
		c0.2,0,0.3-0.1,0.4-0.2c0.4-0.2,0.9-0.3,1.3-0.4c0.8-0.2,1.8-0.5,3.1-0.7C23,2.5,24.4,2.3,26,2.1l0.8,0c0.2,0,0.3,0,0.5,0
		c0.2,0,0.3,0,0.5,0c1.4,0,2.3,0.4,2.7,1.3c0.3,0.1,0.5,0.3,0.7,0.5c0.2,0.2,0.4,0.4,0.6,0.6c0.1,0.1,0.2,0.2,0.4,0.3
		c0.1,0.1,0.2,0.2,0.3,0.2l0.3,0.3c0.3,0.6,0.3,1.2,0.2,1.8c-0.2,0.3-0.3,0.5-0.5,0.6c-0.2,0.1-0.4,0.1-0.6,0.2l-0.5,0.3
		c-0.3,0-0.6,0-0.8,0c-0.2,0-0.4,0-0.6,0c-0.8,0-1.7,0-2.7,0.1c-1,0.1-2.1,0.2-3.2,0.4C23,8.8,22,9,20.9,9.2c-1,0.2-1.9,0.5-2.7,0.8
		c-0.2,0.2-0.5,0.3-0.8,0.4c-0.1,0-0.2,0.1-0.4,0.2c0,0.2,0,0.4,0,0.6c0,0.2-0.1,0.4-0.1,0.6c0,0.1,0,0.3-0.1,0.4
		c0,0.1,0,0.3-0.1,0.5c-0.6,0.7-0.8,1.4-0.8,2.3l-0.2,0.4c-0.1,0.1-0.2,0.3-0.3,0.5c-0.1,0.2-0.1,0.4,0,0.6l0.2,0.5
		c0.5-0.1,1-0.1,1.6-0.2c0.5-0.1,1.1-0.1,1.6-0.2c0.7-0.1,1.5-0.2,2.2-0.3c0.7-0.1,1.5-0.1,2.3-0.1H25l-0.4,0.4l0.4,0l-0.2,0.6
		c0.2,0.1,0.3,0.1,0.4,0.2c0.1,0,0.2,0.1,0.3,0.1l0.3,0.4c0.1,0.1,0.2,0.2,0.4,0.4c0.1,0.2,0.2,0.4,0.2,0.7l-0.1,0.4l-1.8,2.4
		L24.2,22l-0.4-0.1c-0.5,0-1,0-1.4,0.2c-0.2,0.1-0.4,0.1-0.7,0.2c-0.2,0.1-0.5,0.1-0.7,0.1c-0.6,0.1-1.2,0.2-1.6,0.3
		c-0.4,0.1-0.8,0.1-1.3,0.2c-0.6,0.1-1.1,0.2-1.7,0.3c-0.5,0.1-1,0.2-1.5,0.4c-0.3,0-0.5,0-0.5,0c-0.1,0-0.1,0-0.2,0
		c-0.3,0-0.5,0-0.8,0.1c-0.3,0.1-0.5,0.2-0.7,0.2c-0.2,0.1-0.3,0.3-0.3,0.4c-0.1,0.1-0.1,0.3-0.2,0.5c-0.1,0.2-0.1,0.4-0.2,0.5
		c-0.1,0.2-0.2,0.3-0.3,0.5l0,0.7c-0.2,0.1-0.4,0.1-0.4,0.1c0,0,0,0,0,0c0,0.2,0,0.4-0.1,0.6c-0.1,0.2-0.1,0.4-0.2,0.5
		c-0.1,0.1-0.1,0.2-0.1,0.3c0,0.1,0,0.2,0,0.2c0.3,0.5,0.3,1,0.2,1.6c-0.1,0.5-0.3,0.9-0.6,1.3c-0.3,0.4-0.6,0.7-1,0.9
		c-0.4,0.1-0.7,0-0.9,0c-0.2-0.1-0.4-0.2-0.6-0.2c-0.1-0.1-0.3-0.1-0.4-0.1c-0.1,0-0.3-0.1-0.4-0.1l-0.5-0.4
		c-0.1-0.2-0.2-0.3-0.3-0.5c-0.1-0.1-0.2-0.3-0.3-0.5C6,30,5.9,29.8,5.8,29.6c-0.1-0.2-0.2-0.4-0.4-0.6c-0.2-0.9-0.2-1.7-0.1-2.3
		c0.1-0.6,0.3-1.2,0.5-1.8c0.1-0.2,0.1-0.4,0.2-0.6C6,24.1,6.1,23.9,6.1,23.7z"/>
</g>
<g>
	<path d="M33.2,10.7c-0.1-0.3-0.1-0.6-0.2-0.6c0.2-0.5,0.3-0.9,0.4-1.4c0.1-0.5,0.2-0.9,0.2-1.3c0.1-0.4,0.1-0.7,0.2-1
		C33.9,6,34,5.7,34.1,5.4c0.4-0.1,0.8-0.3,1-0.6c0.2-0.3,0.4-0.5,0.5-0.7c0.5,0,0.8,0,0.9,0.2c0.1,0.2,0.3,0.4,0.5,0.8
		c0.1,0.3,0.3,0.6,0.6,0.9c0.2,0.3,0.6,0.6,1.1,0.8c0.1,0.3,0.2,0.6,0.3,0.8c0.1,0.3,0.2,0.5,0.4,0.8c0.2,0.6,0.5,1.1,0.7,1.7
		c0.2,0.6,0.3,1.1,0.4,1.7c-0.3,0.6-0.6,1.3-0.7,2.1c-0.2,0.8-0.3,1.6-0.3,2.4c0,0.8,0,1.6,0.1,2.3s0.2,1.4,0.4,1.8l0.2,0.6l0.9-0.1
		c0.9-0.2,1.8-0.5,2.6-0.8c0.8-0.3,1.5-0.7,2.1-1.1c0.7-0.4,1.3-0.9,1.9-1.4c0.6-0.5,1.2-1.2,1.9-1.9c0.6-0.7,1.2-1.6,1.7-2.5
		c0.5-0.9,0.9-1.9,1.2-2.9c0.3-1,0.6-2,0.8-3c0.2-1,0.3-1.9,0.4-2.8c0.5-0.2,0.8-0.6,0.8-1.1L54,3c-0.1-0.1-0.1-0.3-0.1-0.4
		c0-0.1,0-0.2,0.1-0.3c0.2-0.6,0.7-1,1.3-1.3c0.5,0.3,0.9,0.7,1.3,1c0.4,0.4,0.8,0.7,1.1,1.1c0.1,0.7,0.2,1.3,0.3,1.8
		c0.2,0.5,0.3,1,0.5,1.5c0.2,0.4,0.3,0.9,0.5,1.3c0.1,0.4,0.2,0.9,0.3,1.5c-0.3,0.8-0.5,1.5-0.6,2.2c-0.1,0.7-0.2,1.4-0.3,2.2
		L58.4,14c-0.5,0.8-0.9,1.6-1.4,2.5c-0.5,0.9-0.8,1.6-1.1,2.2c-0.2,0.2-0.3,0.3-0.4,0.6s-0.2,0.4-0.3,0.6c-0.1,0.1-0.1,0.2-0.2,0.4
		c-0.1,0.2-0.2,0.3-0.3,0.4l-0.9-0.4l-0.2,1.2l-0.6,0.2l-0.5,0.6c-0.6,1-1.2,1.9-1.9,2.6c-0.7,0.7-1.4,1.3-2.2,1.9
		c-0.8,0.6-1.8,1.1-2.8,1.6c-1,0.5-2.2,1-3.6,1.6c-0.5-0.1-1-0.1-1.4-0.1c-0.4,0-0.8,0-1.1-0.1c-0.4,0-0.7,0-1.1,0
		c-0.3,0-0.7-0.1-1.2-0.1c-0.1-0.2-0.2-0.4-0.4-0.5c-0.2-0.1-0.4-0.2-0.5-0.2c-0.5-0.3-0.9-0.6-1.2-1.1c-0.3-0.5-0.5-1-0.8-1.6
		c-0.1-0.3-0.3-0.6-0.4-0.9c-0.1-0.3-0.3-0.6-0.5-0.9l0.8-0.2l-1-1.2c-0.1-0.1-0.2-0.2-0.3-0.2c-0.1-0.1-0.2-0.2-0.3-0.3v-0.7
		c-0.1-2.2-0.2-4.1-0.1-6c0-1.8,0.3-3.4,0.7-4.8L33.2,10.7z"/>
	<path d="M59.2,8c0-0.2-0.1-0.4-0.1-0.6C59,7.2,59,7.1,58.9,6.8c-0.1-0.3-0.2-0.7-0.4-1c-0.1-0.4-0.2-0.8-0.2-1.3
		c0.1-0.3,0.1-0.5,0.2-0.6s0.2-0.2,0.2-0.3L59,3h0.6c0.2,0,0.4,0,0.6,0c0.2,0,0.4,0,0.6,0c1,0,2,0,3.1-0.1c1-0.1,2.1-0.2,3.2-0.3
		c1.2-0.2,2.5-0.3,3.9-0.4c0.1-0.3,0.2-0.5,0.3-0.6c0-0.1,0.1-0.2,0.1-0.3l0.4-0.2c0.6,0,1,0,1.3,0.2c0.2,0.2,0.4,0.3,0.6,0.5
		c0.7-0.1,1.4-0.1,2.1-0.2c0.7-0.1,1.4-0.2,2.2-0.3c1-0.1,2.1-0.3,3.2-0.4c1.1-0.1,2.1-0.2,3.1-0.2c0.4,0,0.9,0,1.3,0
		c0.4,0,0.8,0.1,1.1,0.1l0.5,0.4c0.1,0.2,0.2,0.4,0.4,0.5c0.2,0.2,0.3,0.3,0.6,0.5c0.4,0.3,0.8,0.7,1.2,1.2s0.5,1.2,0.4,2.1
		l-0.2,0.4c-0.1,0.1-0.2,0.2-0.4,0.3l-0.4,0.5h-0.4c-0.3,0-0.5,0-0.6,0.1c-0.1,0-0.3,0.1-0.5,0.2c-0.1,0.1-0.2,0.1-0.4,0.1
		c-0.1,0-0.3,0.1-0.4,0.1c-0.3,0-0.5,0-0.7,0s-0.3,0-0.6,0c-0.8,0-1.6,0.1-2.6,0.2c-0.9,0.1-1.8,0.2-2.7,0.4
		c-0.6,0.1-1.2,0.2-1.8,0.2c-0.6,0.1-1.1,0.1-1.6,0.2c-0.3,0.7-0.5,1.3-0.7,1.8c-0.2,0.5-0.4,1-0.7,1.6c-0.2,0.5-0.5,1.1-0.7,1.6
		c-0.2,0.5-0.4,1.1-0.6,1.8c-0.3,0.5-0.6,0.9-0.8,1.4c-0.2,0.4-0.4,0.9-0.5,1.5c-0.4,0.4-0.7,0.9-0.8,1.5c-0.2,0.5-0.3,1-0.5,1.3
		l-0.2,0.6c-0.2,0.2-0.3,0.3-0.3,0.4c0,0.1-0.1,0.2-0.2,0.4c-0.1,0.3-0.2,0.7-0.3,1c-0.1,0.1-0.1,0.3-0.2,0.4
		c-0.1,0.1-0.1,0.3,0,0.3c-0.1,0.3-0.1,0.5-0.2,0.7c0,0.2,0,0.3,0,0.5c0,0.2-0.1,0.3-0.1,0.5c-0.1,0.2-0.1,0.3-0.1,0.5
		c0,0.1,0,0.3,0,0.4c0.1,0.1,0.2,0.2,0.2,0.3c0.1,0.1,0.1,0.2,0.2,0.4c0.1,0.1,0.1,0.1,0.2,0.1s0.1,0.1,0.2,0.1
		c0.2,0.2,0.4,0.3,0.6,0.3l0.4,0.5c0.2,0.9,0,1.7-0.4,2.2c-0.5,0.6-1.3,0.9-2.4,0.9l-0.6,0c-0.2-0.2-0.3-0.3-0.3-0.4
		c-0.2-0.1-0.4-0.2-0.6-0.3c-0.2-0.1-0.3-0.2-0.4-0.4c-0.1-0.1-0.1-0.1-0.2-0.1c-0.1,0-0.1,0-0.2-0.1c-0.3-0.1-0.5-0.2-0.6-0.3
		l-0.4-0.2c0-0.3,0-0.4,0-0.6c-0.2-0.3-0.4-0.6-0.5-0.9c-0.1-0.3-0.2-0.7-0.3-1.1c-0.1-0.3-0.2-0.6-0.2-0.8
		c-0.1-0.2-0.2-0.4-0.3-0.6c-0.1-1.8,0.1-3.4,0.5-4.6s0.8-2.5,1.3-3.6c0.3-0.6,0.5-1.3,0.7-1.9c0.2-0.7,0.4-1.3,0.6-2l0.4-0.4
		c0.2-0.2,0.3-0.2,0.4-0.3c0-0.3,0.1-0.7,0.2-1c0.1-0.3,0.3-0.7,0.4-1c0.1-0.2,0.2-0.4,0.3-0.6c0.1-0.2,0.2-0.4,0.2-0.6
		c-0.2,0-0.3,0-0.5,0s-0.3,0-0.5,0.1c-0.3,0.1-0.7,0.1-1,0.1c-0.2,0-0.4,0-0.5,0c-0.2,0.1-0.4,0.2-0.6,0.2c-0.2,0-0.4,0-0.6,0h-0.5
		h-0.5c-0.3,0-0.6,0-0.7,0.1c-0.4,0-0.6,0-0.7,0c-0.1,0-0.2,0-0.4,0h-0.5h-0.5c-0.2,0-0.4,0-0.7-0.1c-0.3,0-0.5-0.1-0.8-0.3L60.1,9
		c-0.2-0.3-0.3-0.4-0.4-0.5l-0.4-0.1V8z"/>
	<path d="M85.7,10.7c-0.1-0.3-0.1-0.6-0.2-0.6c0.2-0.5,0.3-0.9,0.4-1.4c0.1-0.5,0.2-0.9,0.2-1.3c0.1-0.4,0.1-0.7,0.2-1
		c0.1-0.3,0.2-0.6,0.3-0.9c0.4-0.1,0.8-0.3,1-0.6c0.2-0.3,0.4-0.5,0.5-0.7c0.5,0,0.8,0,0.9,0.2c0.1,0.2,0.3,0.4,0.5,0.8
		C89.6,5.4,89.8,5.7,90,6c0.2,0.3,0.6,0.6,1.1,0.8c0.1,0.3,0.2,0.6,0.3,0.8c0.1,0.3,0.2,0.5,0.4,0.8c0.2,0.6,0.5,1.1,0.7,1.7
		c0.2,0.6,0.3,1.1,0.4,1.7c-0.3,0.6-0.6,1.3-0.7,2.1c-0.2,0.8-0.3,1.6-0.3,2.4c0,0.8,0,1.6,0.1,2.3c0.1,0.7,0.2,1.4,0.4,1.8l0.2,0.6
		l0.9-0.1c0.9-0.2,1.8-0.5,2.6-0.8c0.8-0.3,1.5-0.7,2.1-1.1c0.7-0.4,1.3-0.9,1.9-1.4c0.6-0.5,1.2-1.2,1.9-1.9
		c0.6-0.7,1.2-1.6,1.7-2.5c0.5-0.9,0.9-1.9,1.2-2.9c0.3-1,0.6-2,0.8-3c0.2-1,0.3-1.9,0.4-2.8c0.5-0.2,0.8-0.6,0.8-1.1L106.5,3
		c-0.1-0.1-0.1-0.3-0.1-0.4c0-0.1,0-0.2,0.1-0.3c0.2-0.6,0.7-1,1.3-1.3c0.5,0.3,0.9,0.7,1.3,1c0.4,0.4,0.8,0.7,1.1,1.1
		c0.1,0.7,0.2,1.3,0.3,1.8c0.2,0.5,0.3,1,0.5,1.5c0.2,0.4,0.3,0.9,0.5,1.3s0.2,0.9,0.3,1.5c-0.3,0.8-0.5,1.5-0.6,2.2
		c-0.1,0.7-0.2,1.4-0.3,2.2l-0.1,0.4c-0.5,0.8-0.9,1.6-1.4,2.5c-0.5,0.9-0.8,1.6-1.1,2.2c-0.2,0.2-0.3,0.3-0.4,0.6s-0.2,0.4-0.3,0.6
		c-0.1,0.1-0.1,0.2-0.2,0.4c-0.1,0.2-0.2,0.3-0.3,0.4l-0.9-0.4l-0.2,1.2l-0.6,0.2l-0.5,0.6c-0.6,1-1.2,1.9-1.9,2.6
		c-0.7,0.7-1.4,1.3-2.2,1.9s-1.8,1.1-2.8,1.6c-1,0.5-2.2,1-3.6,1.6c-0.5-0.1-1-0.1-1.4-0.1c-0.4,0-0.8,0-1.1-0.1c-0.4,0-0.7,0-1.1,0
		c-0.3,0-0.7-0.1-1.2-0.1c-0.1-0.2-0.2-0.4-0.4-0.5s-0.4-0.2-0.5-0.2c-0.5-0.3-0.9-0.6-1.2-1.1c-0.3-0.5-0.5-1-0.8-1.6
		c-0.1-0.3-0.3-0.6-0.4-0.9c-0.1-0.3-0.3-0.6-0.5-0.9l0.8-0.2l-1-1.2c-0.1-0.1-0.2-0.2-0.3-0.2c-0.1-0.1-0.2-0.2-0.3-0.3v-0.7
		c-0.1-2.2-0.2-4.1-0.1-6c0-1.8,0.3-3.4,0.7-4.8L85.7,10.7z"/>
	<path d="M112,26.8c-0.1,0-0.2-0.1-0.4-0.3c-0.1-0.2-0.2-0.4-0.4-0.6h0.4c-0.2-0.6-0.2-1.1-0.1-1.6s0.2-1,0.3-1.4
		c0.1-0.5,0.2-0.9,0.3-1.3c0.1-0.4,0-0.9-0.1-1.4c0.1,0.1,0.2,0,0.3-0.1c0.1-0.1,0.1-0.3,0.2-0.6c0-0.2,0.1-0.5,0-0.7
		c0-0.2,0-0.5-0.1-0.6c0.3-0.8,0.6-1.7,0.8-2.5c0.2-0.9,0.4-1.7,0.5-2.6c0.2-0.9,0.3-1.7,0.5-2.5c0.2-0.8,0.5-1.6,0.8-2.3
		c0.4-0.1,0.8,0,1.2,0.1c0.4,0.1,0.7,0.3,0.8,0.5c0.8-0.6,1.5-1.4,2.2-2.3c0.6-0.9,1.3-1.8,1.9-2.6c0.6-0.9,1.4-1.6,2.2-2.3
		c0.8-0.7,1.8-1,3-1.2c0.6,0.4,1.3,0.9,2.1,1.4c0.8,0.5,1.4,1.1,1.9,1.9c0.2,0.1,0.4,0.3,0.6,0.4c0.2,0.1,0.4,0.3,0.6,0.4v0.6
		c0.4,0.3,0.7,0.7,0.9,1.2c0.2,0.5,0.5,0.9,0.7,1.5c0.2,0.5,0.4,1,0.6,1.6c0.2,0.5,0.4,1,0.6,1.5c-0.1,0.2-0.1,0.3-0.1,0.4
		c0,0.1,0,0.2,0.1,0.4s0.1,0.2,0.1,0.4c0,0.1,0,0.3,0,0.5c-0.1,1.4-0.6,2.5-1.4,3.4c-0.8,0.9-1.8,1.5-2.9,2.1
		c-1.1,0.5-2.4,1-3.6,1.4c-1.3,0.4-2.5,0.8-3.5,1.2c0,0.1,0.1,0.2,0.2,0.2s0.2,0.1,0.1,0.2c0.8,0.5,1.4,0.9,1.8,1.1
		c0.4,0.3,0.8,0.5,1.2,0.7c0.4,0.2,0.8,0.4,1.3,0.5c0.5,0.1,1.1,0.3,1.9,0.5c0.8,0.2,1.4,0.3,1.9,0.5s0.9,0.2,1.2,0.3
		s0.8,0.1,1.2,0.2c0.4,0.1,1,0.1,1.7,0.2c0.3,0.3,0.5,0.6,0.7,1s0.3,0.8,0.4,1.2c0.1,0.4,0.1,0.8,0.1,1.1c0,0.4-0.2,0.6-0.3,0.8
		c0,0.1,0.1,0.2,0.2,0.1c0.1,0,0.2,0,0.4,0c-0.2,0.1-0.3,0.3-0.5,0.5c-0.1,0.2-0.3,0.4-0.4,0.6c-0.1,0.2-0.3,0.4-0.5,0.5
		c-0.2,0.2-0.4,0.2-0.6,0.3c-0.9,0.4-2.2,0.4-3.6,0c-1.5-0.3-3.3-0.9-5.6-1.8c-1.1-0.4-2-0.8-2.8-1.1s-1.3-0.7-1.8-1s-1-0.7-1.5-1.1
		c-0.4-0.4-1-0.8-1.5-1.4c-0.1,0-0.1,0.1-0.1,0.2c0,0.1-0.1,0.1-0.1,0.2c-0.1,1-0.3,1.9-0.6,2.6c-0.3,0.7-0.7,1.3-1.2,2
		c-0.4-0.1-0.7,0-0.8,0.1c-0.1,0.2-0.3,0.3-0.5,0.4c-0.3,0.1-0.5,0-0.6,0c-0.1-0.1-0.2-0.1-0.4-0.2s-0.2-0.2-0.4-0.2
		c-0.1-0.1-0.3-0.1-0.6-0.1c-0.1-0.2-0.2-0.5-0.2-0.7c-0.1-0.2-0.3-0.3-0.6-0.3c0.1-0.2,0.1-0.4,0.1-0.6c0-0.2-0.1-0.3-0.1-0.5
		c-0.1-0.1-0.1-0.3-0.1-0.5C111.9,27.2,111.9,27,112,26.8z M125.1,8.8c-0.3,0.5-0.7,1-1.1,1.4c-0.4,0.4-0.8,0.8-1.2,1.3
		s-0.8,0.9-1.1,1.4c-0.3,0.5-0.5,1.1-0.7,1.8c1.1-0.1,2.3-0.4,3.5-0.9c1.2-0.5,2.3-1,3.4-1.4c-0.1-1-0.5-1.8-1-2.3
		C126.3,9.4,125.7,9,125.1,8.8z"/>
	<path d="M139.1,28.8c-0.2-0.2-0.4-0.5-0.5-0.7c-0.1-0.3-0.3-0.5-0.6-0.7c-0.1-0.4-0.1-0.8-0.2-1.4c-0.1-0.5-0.2-1-0.3-1.6
		c-0.1-0.5-0.2-1.1-0.2-1.6c0-0.5,0-1,0.1-1.5c0.1-0.2,0.1-0.5,0.3-0.7s0.2-0.4,0.4-0.6c0.1-0.2,0.2-0.4,0.3-0.6s0.1-0.4,0-0.6
		c0.2,0,0.3-0.1,0.3-0.3s0.2-0.2,0.4-0.1c0.2-0.6,0.4-1.1,0.6-1.6s0.4-1,0.7-1.5s0.5-1,0.7-1.4s0.5-1,0.7-1.6
		c-0.4-0.4-0.8-0.9-1-1.4c-0.2-0.5-0.3-1-0.5-1.5C140.1,9,140,8.5,140,8c-0.1-0.5-0.2-1-0.3-1.6c0.3-0.5,0.7-0.9,1.1-1.2
		c0.4-0.3,0.9-0.6,1.5-0.7c0.5-0.2,1.1-0.4,1.8-0.5c0.6-0.1,1.3-0.3,2-0.4c1.3-0.4,2.4-0.7,3.4-0.9c1-0.2,2-0.4,2.9-0.6
		s1.9-0.3,3-0.4c1-0.1,2.2-0.3,3.5-0.5c0,0.1,0.1,0.1,0.1,0.1c0.1,0,0.2,0,0.3,0c0.1,0.2,0.2,0.3,0.4,0.3c0-0.1,0-0.2,0-0.2
		c0-0.1,0-0.1,0-0.2c0.1,0,0.1,0,0.2,0c0.1,0,0.2,0.1,0.2,0.1c0.1,0,0.1,0,0.2,0c0.1,0,0.1-0.1,0-0.3c0.3,0.6,0.7,1,1.2,1.4
		c0.5,0.4,1,0.7,1.7,0.9c0,0.2,0,0.4,0,0.5c0,0.1,0,0.2-0.1,0.3c0,0.1,0,0.2,0,0.3c0,0.1,0,0.3,0.1,0.5c-0.4,0.7-0.9,1.3-1.4,1.7
		c-0.5,0.4-1.1,0.7-1.7,0.9c-0.6,0.2-1.2,0.4-1.9,0.5c-0.7,0.1-1.4,0.2-2,0.3c-0.7,0.1-1.4,0.3-2.1,0.5s-1.4,0.5-2.1,0.9
		c-0.2-0.1-0.4-0.1-0.6-0.1c-0.2,0-0.3,0-0.5,0.1c-0.2,0.1-0.4,0.1-0.6,0.2c-0.2,0.1-0.5,0.1-0.8,0c-0.2,0.2-0.5,0.3-0.7,0.4
		c-0.3,0.1-0.6,0.2-0.8,0.2c0.1,0.3,0.2,0.6,0.2,0.9c0,0.3,0,0.5,0.1,0.7c1.1,0.1,2.3,0.1,3.7,0s2.6-0.2,3.9-0.3c0,0.1,0,0.2,0,0.3
		c-0.1,0.1-0.1,0.1-0.1,0.3c0.2,0.2,0.5,0.4,0.7,0.6c0.2,0.2,0.4,0.5,0.6,0.7c0.2,0.2,0.5,0.4,0.7,0.6c0.2,0.1,0.5,0.2,0.8,0.2
		c0.1,0.3,0.2,0.5,0.3,0.8s0,0.6-0.1,0.9c-0.5,0.3-1,0.7-1.5,1c-0.5,0.4-1,0.7-1.6,1c-0.5,0.3-1.1,0.5-1.8,0.7
		c-0.6,0.2-1.3,0.3-2,0.2c-0.1,0-0.2,0-0.3,0c-0.1,0-0.2-0.1-0.3-0.2c-0.3,0.1-0.6,0.2-1,0.1c-0.4,0-0.8,0-1.1,0.1
		c-0.4-0.1-0.8-0.2-1.3-0.2c-0.5,0-0.9-0.1-1.3-0.2c-0.5,0.7-0.9,1.4-1.3,2.1c-0.4,0.7-0.8,1.5-1.1,2.4c1.1,0.2,2,0.2,2.7,0.2
		s1.4-0.1,2-0.2c0.6-0.1,1.3-0.2,1.9-0.2s1.5-0.1,2.5-0.1c0.7-0.3,1.4-0.5,2.3-0.6s1.6-0.3,2.4-0.5c0.3,0.1,0.5,0.2,0.7,0.5
		c0.2,0.2,0.4,0.4,0.5,0.7s0.3,0.4,0.5,0.6s0.4,0.2,0.7,0.2c0.1,0.1,0.2,0.3,0.3,0.5s0.1,0.4,0.1,0.5c0,0.2,0.1,0.3,0.2,0.4
		c0.1,0.1,0.2,0.1,0.4,0.1c-0.5,1-1.1,1.8-1.7,2.4s-1.3,1-2.1,1.3c-0.8,0.3-1.6,0.5-2.6,0.7c-1,0.1-2,0.3-3.2,0.5
		c-0.3,0.1-0.5,0-0.7,0c-0.2-0.1-0.4-0.1-0.6-0.1c-0.7,0.1-1.6,0.3-2.6,0.4c-1,0.1-2,0.2-3,0.2c-1,0-2-0.2-3-0.4
		C140.5,29.9,139.7,29.4,139.1,28.8z"/>
</g>
</svg>
